<?xml version="1.0" standalone="no"?>
<!DOCTYPE svg PUBLIC "-//W3C//DTD SVG 20010904//EN"
 "http://www.w3.org/TR/2001/REC-SVG-20010904/DTD/svg10.dtd">
<svg version="1.0" xmlns="http://www.w3.org/2000/svg"
 width="512.000000pt" height="481.000000pt" viewBox="0 0 512.000000 481.000000"
 preserveAspectRatio="xMidYMid meet">

<g transform="translate(0.000000,481.000000) scale(0.100000,-0.100000)"
fill="#000000" stroke="none">
<path d="M1978 4783 c-33 -38 -72 -110 -89 -163 -15 -49 -20 -55 -45 -58 -16
-1 -72 9 -124 23 -52 15 -113 30 -135 35 -23 5 -132 39 -244 76 -132 43 -222
67 -255 68 l-51 1 -8 -60 c-15 -110 3 -319 53 -600 11 -60 29 -164 40 -230 12
-66 29 -163 39 -217 l18 -96 -43 -129 c-23 -70 -49 -129 -56 -131 -23 -5 -60
-69 -65 -114 -2 -24 -15 -63 -28 -88 -47 -92 -84 -224 -111 -400 -35 -234 -94
-384 -193 -492 -69 -75 -129 -108 -195 -108 -58 0 -81 12 -102 51 -21 41 -29
30 -10 -14 8 -20 27 -42 44 -51 46 -24 157 -30 222 -12 30 8 57 13 58 11 2 -2
-15 -39 -38 -82 -36 -66 -65 -117 -155 -271 -76 -131 -146 -269 -171 -337 -24
-68 -54 -224 -54 -285 0 -67 25 -197 41 -217 9 -10 2 -38 -26 -110 -55 -145
-61 -162 -80 -238 -31 -124 -37 -177 -33 -315 3 -127 5 -138 31 -182 18 -31
35 -48 47 -48 22 0 26 10 9 27 -8 8 -10 43 -7 105 5 95 14 123 75 246 24 46
43 66 43 44 0 -9 99 -112 107 -112 2 0 19 -11 37 -25 18 -14 38 -25 44 -25 7
0 14 -12 18 -27 16 -71 55 -190 69 -211 l16 -22 1623 0 c1530 0 1624 1 1639
18 31 34 67 189 74 314 l6 119 25 -23 c41 -39 108 -131 143 -196 32 -61 32
-62 13 -83 -25 -28 -107 -69 -138 -69 -14 0 -28 -5 -32 -11 -11 -18 124 0 168
22 l38 19 6 -27 c17 -77 17 -78 72 -81 68 -4 74 9 74 154 -1 99 2 119 23 162
52 109 69 202 69 392 0 125 -4 196 -16 250 -9 41 -19 93 -23 115 -7 45 -30
130 -51 188 -8 20 -14 40 -14 43 0 3 21 -13 48 -35 93 -78 230 -125 260 -88
11 13 7 14 -30 10 -39 -4 -49 0 -101 38 -64 48 -105 107 -160 234 -62 141 -71
184 -70 345 1 136 6 182 33 355 17 103 18 330 2 386 -12 40 -12 50 2 77 26 51
16 140 -20 183 -8 9 -14 38 -14 70 0 51 3 56 49 103 56 54 158 192 232 311 27
44 85 136 129 205 99 156 165 283 157 304 -4 9 -17 20 -30 25 -14 5 -27 16
-30 23 -6 17 -34 26 -227 74 -245 61 -415 94 -490 94 -19 0 -59 6 -88 13 -48
11 -61 20 -117 82 l-63 71 15 67 c15 65 11 157 -6 157 -4 0 -15 -15 -23 -34
-9 -19 -31 -50 -49 -69 l-32 -35 -68 44 c-117 76 -383 199 -475 219 -16 4 -47
13 -69 21 -52 17 -223 49 -354 65 -182 22 -550 -16 -648 -67 -18 -9 -39 -14
-47 -11 -30 12 -69 108 -74 185 -2 39 -8 72 -12 72 -4 0 -14 -8 -22 -17z m72
-260 c0 -9 -25 4 -26 13 0 5 -6 22 -12 37 -27 63 -21 77 8 18 16 -35 30 -66
30 -68z m1775 -301 c-4 -26 -10 -41 -12 -34 -3 7 -2 34 2 60 4 26 10 41 12 34
3 -7 2 -34 -2 -60z m-2634 -144 c6 -29 11 -71 11 -93 -1 -29 1 -36 8 -25 8 12
10 11 10 -5 0 -12 -6 -27 -12 -34 -11 -10 -10 -11 4 -6 14 5 18 -3 24 -51 13
-108 10 -158 -13 -194 l-22 -34 -10 27 c-14 36 -14 67 -1 67 6 0 10 5 10 11 0
5 -5 7 -10 4 -6 -3 -15 6 -21 22 -7 19 -7 29 0 31 7 2 5 9 -4 19 -8 8 -15 26
-15 41 0 15 -9 70 -20 122 -20 94 -25 142 -13 110 4 -8 12 -20 19 -28 7 -7 11
-19 8 -27 -4 -10 0 -15 10 -15 14 0 16 9 12 55 -6 70 8 71 25 3z m3439 -488
c0 -5 -8 -10 -17 -10 -15 0 -16 2 -3 10 19 12 20 12 20 0z m13 -27 c4 -2 4 -9
1 -15 -4 -7 -2 -8 5 -4 6 4 9 12 6 17 -4 5 8 9 25 9 19 0 29 -4 25 -10 -4 -6
-11 -7 -17 -4 -7 5 -9 1 -5 -9 7 -19 -17 -42 -34 -32 -8 5 -9 1 -5 -13 5 -14
1 -25 -12 -34 -11 -7 -20 -17 -20 -23 -1 -5 -44 -57 -95 -115 -95 -107 -139
-159 -237 -285 -29 -38 -68 -84 -84 -100 -17 -17 -58 -61 -92 -97 l-61 -67 5
122 c3 96 8 129 23 153 11 17 19 50 19 73 0 33 7 49 35 80 19 21 35 47 35 58
0 30 147 159 241 211 70 39 84 47 99 59 8 6 22 13 30 15 8 2 21 9 28 16 13 12
61 9 85 -5z m-2744 -545 c1 -32 8 -107 17 -169 8 -61 13 -113 12 -115 -6 -6
-83 35 -106 57 -12 11 -22 15 -22 10 0 -13 67 -67 107 -86 25 -12 35 -25 43
-58 23 -93 75 -237 120 -334 27 -57 51 -103 53 -103 3 0 -1 23 -8 52 -8 28
-17 83 -20 122 l-6 71 24 -60 c46 -115 127 -252 140 -238 4 3 7 34 7 67 l1 61
30 -59 c34 -66 74 -110 92 -103 35 14 140 102 178 151 24 30 47 55 50 55 6 1
-22 -149 -37 -204 -4 -15 -1 -13 13 6 10 15 36 51 59 80 44 59 126 200 171
294 26 56 31 61 73 70 l45 10 -42 3 -43 3 16 37 c36 85 104 323 104 366 0 60
10 16 30 -134 11 -85 25 -180 30 -210 10 -57 44 -269 56 -352 l6 -48 -124 0
c-183 0 -220 -15 -280 -112 -17 -27 -13 -38 8 -19 12 11 94 31 94 22 0 -3 -9
-34 -19 -68 -25 -83 -37 -168 -22 -159 6 4 16 -5 23 -21 7 -15 17 -31 21 -34
5 -4 5 -9 0 -12 -6 -4 -16 6 -23 21 -12 24 -14 25 -18 7 -5 -21 30 -55 57 -55
14 0 14 2 1 10 -8 5 -12 12 -8 15 3 4 2 20 -2 36 -5 16 -7 29 -5 29 3 0 18
-14 35 -30 34 -33 49 -35 116 -19 44 11 67 5 70 -19 2 -17 17 -42 25 -42 4 0
24 14 43 31 l35 30 -14 -28 c-25 -50 -60 -76 -92 -69 -15 4 -41 10 -58 13 -48
9 -17 -14 35 -26 36 -8 50 -7 68 5 34 23 88 102 115 171 l25 63 -33 0 c-36 0
-60 21 -51 45 7 20 60 19 80 -1 14 -14 16 -14 16 0 0 8 10 26 23 40 18 20 26
23 46 15 21 -8 23 -14 19 -57 -6 -53 -41 -148 -100 -267 -49 -98 -54 -105 -84
-105 -13 0 -24 -4 -24 -8 0 -5 10 -8 22 -8 23 1 39 -29 73 -144 26 -85 56
-150 70 -150 20 0 40 39 60 115 19 75 69 188 91 206 46 38 59 -59 25 -172 -11
-35 -23 -82 -27 -104 -4 -22 -12 -43 -18 -47 -6 -4 0 -8 15 -8 27 0 64 -31 52
-43 -3 -4 5 -7 20 -7 35 0 69 -44 65 -84 -3 -28 -7 -32 -44 -36 -22 -3 -53
-16 -69 -28 -15 -12 -36 -22 -45 -22 -19 0 -34 26 -24 41 3 5 1 9 -4 9 -6 0
-13 -7 -16 -16 -4 -10 -15 -14 -33 -12 -22 2 -29 10 -34 33 -7 30 -7 30 -8 3
-1 -21 -12 -33 -55 -57 -29 -17 -58 -31 -64 -31 -8 0 -10 28 -9 83 3 86 -9
182 -39 329 l-18 86 -16 -31 c-15 -29 -68 -78 -140 -130 -25 -18 54 22 122 62
35 21 37 21 42 3 4 -11 3 -28 -1 -38 -11 -25 -110 -171 -122 -178 -18 -12
-237 -36 -371 -43 -216 -9 -438 26 -600 94 -113 48 -282 143 -360 201 -164
122 -313 301 -276 331 7 6 25 35 40 64 l27 52 -25 -30 c-33 -39 -90 -148 -120
-227 l-24 -63 -7 37 c-4 21 -11 61 -15 90 -6 40 -8 44 -8 18 0 -19 3 -59 7
-87 4 -29 6 -53 4 -53 -1 0 -9 12 -17 28 -8 15 -24 37 -36 50 l-21 23 -18 -23
c-16 -20 -22 -21 -45 -10 -16 7 -26 20 -27 34 l0 23 -10 -23 c-15 -39 -58 -26
-89 28 -14 25 -36 49 -48 55 -28 12 -28 25 0 60 18 23 26 26 60 22 21 -3 36
-1 32 4 -3 5 7 14 21 19 26 10 47 4 85 -24 9 -6 6 -1 -6 10 -22 21 -22 25 -13
130 14 168 45 250 79 210 22 -28 33 -134 22 -221 -13 -99 -2 -161 26 -146 27
15 95 91 145 163 l47 67 0 95 0 96 28 -6 c54 -13 185 -64 226 -88 22 -13 70
-49 105 -80 73 -63 96 -71 87 -28 -3 15 -8 39 -10 54 -10 59 -85 128 -211 192
-79 40 -141 53 -185 38 -28 -10 -30 -9 -30 12 0 54 42 250 76 351 60 181 63
182 57 15 -6 -151 3 -228 35 -310 l17 -45 5 45 5 45 22 -47 c12 -27 27 -48 32
-48 6 0 11 20 11 44 0 51 51 335 75 422 10 32 40 103 69 156 l51 98 7 -43 c3
-23 7 -68 7 -99z m2442 -275 c5 -59 3 -68 -19 -71 -18 -3 -22 1 -22 26 0 17 3
37 6 46 8 22 34 20 35 -1z m-1165 -440 c6 -53 6 -55 -17 -51 -26 3 -26 3 -14
103 7 53 9 57 16 31 4 -15 11 -53 15 -83z m139 -63 c-4 -12 -9 -19 -12 -17 -3
3 -2 15 2 27 4 12 9 19 12 17 3 -3 2 -15 -2 -27z m-1951 -156 c-18 -27 -19
-28 -22 -6 -2 12 2 39 9 60 l13 37 9 -31 c7 -25 5 -37 -9 -60z m1731 -74 c3
-5 -1 -10 -9 -10 -9 0 -16 5 -16 10 0 6 4 10 9 10 6 0 13 -4 16 -10z m-39 -68
c-9 -9 -37 8 -31 18 5 8 11 7 21 -1 8 -6 12 -14 10 -17z m1024 -263 c0 -18 36
-196 74 -369 12 -57 63 -248 111 -420 17 -59 55 -278 55 -313 0 -33 -16 -9
-39 58 -11 33 -27 78 -35 100 -14 37 -26 66 -92 227 -40 99 -92 262 -105 330
-23 122 -6 430 23 412 4 -3 8 -14 8 -25z m-2040 -381 c90 -31 237 -58 357 -65
110 -6 112 -6 101 -27 -39 -73 -193 -181 -314 -220 -27 -9 -85 -34 -127 -56
l-77 -39 0 37 c0 20 -7 78 -15 127 -8 50 -15 132 -15 184 0 85 2 93 18 86 9
-4 42 -16 72 -27z m-1633 -90 c-8 -24 -23 -79 -33 -123 -10 -44 -20 -71 -21
-60 -4 21 27 159 46 209 18 46 26 21 8 -26z"/>
<path d="M1153 3958 c-2 -16 1 -17 13 -8 17 15 17 17 1 23 -8 3 -14 -3 -14
-15z"/>
<path d="M1895 2300 c10 -11 20 -20 23 -20 3 0 -3 9 -13 20 -10 11 -20 20 -23
20 -3 0 3 -9 13 -20z"/>
<path d="M1458 2142 c9 -10 19 -17 21 -16 6 5 -20 34 -30 34 -5 0 -1 -8 9 -18z"/>
<path d="M1432 2013 c-7 -13 -9 -23 -4 -23 5 0 17 -18 27 -40 10 -23 23 -43
28 -47 5 -3 1 9 -7 26 -9 17 -20 47 -24 68 -8 37 -9 37 -20 16z"/>
<path d="M1167 1872 c-10 -10 -17 -27 -16 -38 0 -15 2 -14 10 6 14 34 32 43
47 23 11 -15 12 -15 12 -1 0 9 -7 19 -16 22 -21 8 -19 9 -37 -12z"/>
<path d="M2365 1484 c-22 -7 -29 -12 -16 -9 14 2 31 0 37 -6 9 -7 16 -5 24 10
12 24 9 24 -45 5z"/>
<path d="M3227 1298 c-36 -59 -56 -99 -47 -93 5 3 21 28 36 56 31 56 56 62 64
15 l5 -29 18 38 c16 33 16 37 2 25 -12 -10 -19 -10 -27 -2 -18 18 -36 14 -51
-10z"/>
<path d="M3146 1154 c-4 -9 -4 -19 -1 -22 2 -3 7 3 11 12 4 9 4 19 1 22 -2 3
-7 -3 -11 -12z"/>
<path d="M4542 2368 c5 -81 4 -82 -29 -119 -18 -20 -33 -43 -33 -51 0 -20 35
-35 95 -42 44 -5 55 -11 92 -52 43 -48 67 -53 80 -17 16 44 60 96 95 114 21
11 38 26 38 34 0 9 -16 31 -36 51 -33 31 -37 41 -38 89 -1 30 -4 57 -8 60 -3
3 -31 -6 -62 -20 l-56 -25 -56 30 c-85 45 -87 44 -82 -52z m105 26 l43 -25 37
26 c55 37 63 33 63 -28 0 -51 2 -56 40 -86 22 -17 40 -36 40 -41 0 -5 -18 -19
-39 -30 -28 -14 -51 -38 -77 -81 -33 -56 -38 -60 -50 -44 -47 64 -75 85 -114
85 -40 0 -90 17 -90 31 0 5 14 24 31 44 31 35 31 36 25 115 l-7 80 28 -11 c15
-5 47 -21 70 -35z"/>
</g>
</svg>
